<svg id="visual" viewBox="0 0 900 300" width="900" height="300" xmlns="http://www.w3.org/2000/svg" xmlns:xlink="http://www.w3.org/1999/xlink" version="1.1"><rect x="0" y="0" width="900" height="300" fill="#000000"></rect><path d="M0 199L21.5 200.2C43 201.3 86 203.7 128.8 197.8C171.7 192 214.3 178 257.2 175.8C300 173.7 343 183.3 385.8 184C428.7 184.7 471.3 176.3 514.2 170.7C557 165 600 162 642.8 162.7C685.7 163.3 728.3 167.7 771.2 167.7C814 167.7 857 163.3 878.5 161.2L900 159L900 301L878.5 301C857 301 814 301 771.2 301C728.3 301 685.7 301 642.8 301C600 301 557 301 514.2 301C471.3 301 428.7 301 385.8 301C343 301 300 301 257.2 301C214.3 301 171.7 301 128.8 301C86 301 43 301 21.5 301L0 301Z" fill="#18003a"></path><path d="M0 198L21.5 197.5C43 197 86 196 128.8 195.5C171.7 195 214.3 195 257.2 194.2C300 193.3 343 191.7 385.8 195.2C428.7 198.7 471.3 207.3 514.2 211.2C557 215 600 214 642.8 210C685.7 206 728.3 199 771.2 199.2C814 199.3 857 206.7 878.5 210.3L900 214L900 301L878.5 301C857 301 814 301 771.2 301C728.3 301 685.7 301 642.8 301C600 301 557 301 514.2 301C471.3 301 428.7 301 385.8 301C343 301 300 301 257.2 301C214.3 301 171.7 301 128.8 301C86 301 43 301 21.5 301L0 301Z" fill="#240654"></path><path d="M0 228L21.5 226.5C43 225 86 222 128.8 223.2C171.7 224.3 214.3 229.7 257.2 232.5C300 235.3 343 235.7 385.8 233.2C428.7 230.7 471.3 225.3 514.2 228.2C557 231 600 242 642.8 242.7C685.7 243.3 728.3 233.7 771.2 232.5C814 231.3 857 238.7 878.5 242.3L900 246L900 301L878.5 301C857 301 814 301 771.2 301C728.3 301 685.7 301 642.8 301C600 301 557 301 514.2 301C471.3 301 428.7 301 385.8 301C343 301 300 301 257.2 301C214.3 301 171.7 301 128.8 301C86 301 43 301 21.5 301L0 301Z" fill="#320a70"></path><path d="M0 269L21.5 265.8C43 262.7 86 256.3 128.8 256.5C171.7 256.7 214.3 263.3 257.2 264C300 264.7 343 259.3 385.8 260.2C428.7 261 471.3 268 514.2 271.2C557 274.3 600 273.7 642.8 270.5C685.7 267.3 728.3 261.7 771.2 261.3C814 261 857 266 878.5 268.5L900 271L900 301L878.5 301C857 301 814 301 771.2 301C728.3 301 685.7 301 642.8 301C600 301 557 301 514.2 301C471.3 301 428.7 301 385.8 301C343 301 300 301 257.2 301C214.3 301 171.7 301 128.8 301C86 301 43 301 21.5 301L0 301Z" fill="#410e8d"></path></svg>